<svg width="400" height="250" viewBox="0 0 400 250" fill="none" xmlns="http://www.w3.org/2000/svg">
  <defs>
    <linearGradient id="bgGradient" x1="0%" y1="0%" x2="100%" y2="100%">
      <stop offset="0%" style="stop-color:#1f2937;stop-opacity:1" />
      <stop offset="100%" style="stop-color:#111827;stop-opacity:1" />
    </linearGradient>
  </defs>
  
  <!-- Background -->
  <rect width="400" height="250" fill="url(#bgGradient)" rx="12"/>
  
  <!-- Header -->
  <rect x="20" y="20" width="360" height="40" fill="#374151" rx="8"/>
  <text x="200" y="45" text-anchor="middle" fill="#a855f7" font-family="Fira Code, monospace" font-size="16" font-weight="bold">Pรกgina Web Personal</text>
  
  <!-- Progress Bars -->
  <rect x="30" y="80" width="340" height="20" fill="#1f2937" rx="10"/>
  <rect x="30" y="80" width="300" height="20" fill="#a855f7" rx="10"/>
  <text x="40" y="95" fill="#000" font-family="Fira Code, monospace" font-size="10" font-weight="bold">HTML5 - 90%</text>
  
  <rect x="30" y="110" width="340" height="20" fill="#1f2937" rx="10"/>
  <rect x="30" y="110" width="280" height="20" fill="#22d3ee" rx="10"/>
  <text x="40" y="125" fill="#000" font-family="Fira Code, monospace" font-size="10" font-weight="bold">CSS3 - 85%</text>
  
  <rect x="30" y="140" width="340" height="20" fill="#1f2937" rx="10"/>
  <rect x="30" y="140" width="320" height="20" fill="#f472b6" rx="10"/>
  <text x="40" y="155" fill="#000" font-family="Fira Code, monospace" font-size="10" font-weight="bold">JavaScript - 95%</text>
  
  <!-- Activities Section -->
  <rect x="30" y="180" width="160" height="50" fill="#1f2937" rx="8" stroke="#a855f7" stroke-width="1"/>
  <text x="40" y="200" fill="#a855f7" font-family="Fira Code, monospace" font-size="12" font-weight="bold">๐ Actividades</text>
  <text x="40" y="215" fill="#22d3ee" font-family="Fira Code, monospace" font-size="10">โข Aprender React</text>
  <text x="40" y="225" fill="#22d3ee" font-family="Fira Code, monospace" font-size="10">โข Proyecto Portfolio</text>
  
  <!-- LocalStorage -->
  <rect x="210" y="180" width="160" height="50" fill="#1f2937" rx="8" stroke="#22d3ee" stroke-width="1"/>
  <text x="220" y="200" fill="#22d3ee" font-family="Fira Code, monospace" font-size="12" font-weight="bold">๐พ Persistencia</text>
  <text x="220" y="215" fill="#10b981" font-family="Fira Code, monospace" font-size="10">โ LocalStorage</text>
  <text x="220" y="225" fill="#10b981" font-family="Fira Code, monospace" font-size="10">โ CRUD Completo</text>
  
  <!-- Tech Stack -->
  <text x="30" y="250" fill="#6b7280" font-family="Fira Code, monospace" font-size="10">HTML5 โข CSS3 โข JavaScript โข LocalStorage โข Jasmine</text>
</svg>
